<svg xmlns="http://www.w3.org/2000/svg" width="96" height="27.803"><path d="M.625 21.68V11h13.34v-.625H.625V.625h14.183V0H0v22.305h14.933v-.625H.625zM26.96 6.248l-5.529 7.279-5.4-7.279h-.812L21.056 14l-6.4 8.309h.75l6.029-7.841 6.061 7.841h.781L21.836 14l5.874-7.752h-.75zM30.146 27.8v-10h.062a6.416 6.416 0 002.218 3.515 6.53 6.53 0 004.217 1.328 6.1 6.1 0 005.077-2.5 8.507 8.507 0 001.312-2.687 11.284 11.284 0 00.453-3.217 11.375 11.375 0 00-.469-3.343 8 8 0 00-1.359-2.655A6.246 6.246 0 0039.5 6.5a6.368 6.368 0 00-2.858-.625 6.933 6.933 0 00-2.265.359 6.063 6.063 0 00-1.859 1.015 6.876 6.876 0 00-1.406 1.546 7.121 7.121 0 00-.906 1.953h-.062v-4.5h-.625V27.8h.625zm6.5-5.748a5.988 5.988 0 01-4.717-2.015 8.482 8.482 0 01-1.781-5.8 9.933 9.933 0 01.437-2.968 7.686 7.686 0 011.264-2.459A6.076 6.076 0 0133.9 7.123a5.936 5.936 0 012.744-.623 5.723 5.723 0 012.734.625 5.541 5.541 0 011.937 1.7 7.927 7.927 0 011.156 2.468 10.873 10.873 0 01.39 2.952 11.126 11.126 0 01-.359 2.8 7.993 7.993 0 01-1.109 2.5 6.036 6.036 0 01-1.921 1.812 5.4 5.4 0 01-2.827.7zm10.278.25v-9.088a8.859 8.859 0 01.375-2.562 6.273 6.273 0 011.156-2.2 5.417 5.417 0 011.984-1.5A6.021 6.021 0 0153.3 6.5v-.627a7.74 7.74 0 00-2.515.312 6.107 6.107 0 00-1.859.937 4.787 4.787 0 00-1.249 1.39 6.216 6.216 0 00-.687 1.7h-.062V6.248H46.3v16.057h.625zm7.154-7.9h13.431a11.118 11.118 0 00-.328-3.186A7.925 7.925 0 0065.932 8.5a6.362 6.362 0 00-2.218-1.906 6.828 6.828 0 00-3.233-.719 6.575 6.575 0 00-4.874 2.2 8.322 8.322 0 00-1.562 2.64 9.976 9.976 0 00-.594 3.561 13.061 13.061 0 00.406 3.327 7.8 7.8 0 001.25 2.687 5.639 5.639 0 002.171 1.765 7.184 7.184 0 003.2.594A7.025 7.025 0 0065.1 21.1a6.4 6.4 0 002.218-4.358H66.7a6.007 6.007 0 01-2.078 3.983 6.544 6.544 0 01-4.2 1.328 6.451 6.451 0 01-2.905-.593 5.264 5.264 0 01-1.937-1.625 7.085 7.085 0 01-1.109-2.421 13.024 13.024 0 01-.391-3.015zm12.808-.625h-12.81a9.657 9.657 0 01.625-3.03 7.512 7.512 0 011.39-2.3 5.81 5.81 0 012-1.453 6.041 6.041 0 012.452-.5 6.208 6.208 0 012.749.578 5.679 5.679 0 011.984 1.578 6.958 6.958 0 011.2 2.327 9.507 9.507 0 01.408 2.8zM80.474 11h.626a4.648 4.648 0 00-1.562-3.905 6.736 6.736 0 00-4.249-1.218 7.452 7.452 0 00-2.53.375 5.059 5.059 0 00-1.687.968 3.485 3.485 0 00-.937 1.312 3.769 3.769 0 00-.283 1.368 4.046 4.046 0 00.469 2.1 3.084 3.084 0 001.468 1.218 11.309 11.309 0 001.562.562q.875.25 2.031.531 1.031.25 2.031.5a7.335 7.335 0 011.765.672 3.815 3.815 0 011.25 1.078 2.824 2.824 0 01.484 1.718 3.056 3.056 0 01-.484 1.749 3.9 3.9 0 01-1.235 1.172 5.5 5.5 0 01-1.671.656 8.336 8.336 0 01-1.8.2 6.631 6.631 0 01-4.358-1.265 4.9 4.9 0 01-1.515-3.983h-.625a5.536 5.536 0 001.64 4.436 7.289 7.289 0 004.858 1.406 9.488 9.488 0 002.077-.234 5.773 5.773 0 001.874-.765 4.236 4.236 0 001.343-1.374 3.884 3.884 0 00.516-2.062 3.47 3.47 0 00-.453-1.874 3.8 3.8 0 00-1.179-1.19 6.3 6.3 0 00-1.656-.734q-.927-.267-1.859-.516-1.147-.3-2.3-.593a13.939 13.939 0 01-1.827-.594 3.1 3.1 0 01-1.3-.984 2.983 2.983 0 01-.481-1.83 4.305 4.305 0 01.125-.781 2.8 2.8 0 01.594-1.14 4 4 0 011.437-1.031 6.381 6.381 0 012.655-.448 8.311 8.311 0 012.109.25 4.384 4.384 0 011.64.8A3.625 3.625 0 0180.1 8.935 5.067 5.067 0 0180.474 11zm14.464 0h.625A4.647 4.647 0 0094 7.091a6.736 6.736 0 00-4.249-1.218 7.451 7.451 0 00-2.53.375 5.056 5.056 0 00-1.687.968 3.484 3.484 0 00-.934 1.312 3.769 3.769 0 00-.284 1.372 4.046 4.046 0 00.469 2.1 3.083 3.083 0 001.468 1.218 11.315 11.315 0 001.562.562q.875.25 2.031.531 1.031.25 2.031.5a7.337 7.337 0 011.765.672 3.815 3.815 0 011.249 1.078 2.822 2.822 0 01.484 1.718 3.057 3.057 0 01-.484 1.749 3.9 3.9 0 01-1.234 1.172 5.5 5.5 0 01-1.672.656 8.335 8.335 0 01-1.8.2 6.63 6.63 0 01-4.358-1.265 4.9 4.9 0 01-1.515-3.983h-.625a5.535 5.535 0 001.64 4.436 7.289 7.289 0 004.858 1.406 9.486 9.486 0 002.077-.234 5.776 5.776 0 001.874-.765 4.236 4.236 0 001.343-1.374A3.884 3.884 0 0096 18.213a3.469 3.469 0 00-.453-1.874 3.8 3.8 0 00-1.187-1.187 6.3 6.3 0 00-1.656-.734q-.927-.267-1.859-.516-1.147-.3-2.3-.593a13.933 13.933 0 01-1.828-.594 3.1 3.1 0 01-1.3-.984 2.983 2.983 0 01-.476-1.831 4.293 4.293 0 01.125-.781 2.8 2.8 0 01.593-1.14A4 4 0 0187.1 6.951a6.382 6.382 0 012.652-.451 8.311 8.311 0 012.109.25 4.385 4.385 0 011.64.8 3.625 3.625 0 011.062 1.39 5.067 5.067 0 01.375 2.06z" fill="#fff"/></svg>