<svg xmlns="http://www.w3.org/2000/svg" width="25.147" height="25.146"><g data-name="Layer 2" fill="#fff"><g data-name="Layer 1"><path data-name="Path 4" d="M12.58 0A12.672 12.672 0 00.164 10.828a12.923 12.923 0 008.441 14.3c.625.12.858-.28.858-.621 0-.307-.01-1.321-.017-2.4-3.5.779-4.235-1.52-4.235-1.52a3.376 3.376 0 00-1.4-1.887c-1.141-.8.085-.783.085-.783a2.652 2.652 0 011.93 1.324 2.632 2.632 0 003.66 1.068 2.777 2.777 0 01.8-1.723c-2.784-.322-5.73-1.428-5.73-6.368a5.056 5.056 0 011.3-3.465 4.743 4.743 0 01.121-3.416s1.049-.346 3.455 1.322a11.659 11.659 0 016.3 0C18.12 5 19.184 5.337 19.184 5.337a4.752 4.752 0 01.123 3.416 5.054 5.054 0 011.293 3.461c0 4.953-2.94 6.042-5.74 6.362a3.127 3.127 0 01.852 2.387c0 1.725-.012 3.115-.012 3.537 0 .344.225.745.862.619a12.924 12.924 0 008.422-14.294A12.672 12.672 0 0012.58 0z" fill-rule="evenodd"/><path data-name="Path 5" d="M5.092 18.509a.163.163 0 01-.222.042c-.089-.044-.153-.136-.122-.2a.164.164 0 01.222-.042c.087.044.153.136.12.2z"/><path data-name="Path 6" d="M5.294 19.094c-.064.06-.189.031-.276-.062a.2.2 0 01-.038-.278c.067-.06.187-.031.276.062s.105.223.038.278z"/><path data-name="Path 7" d="M5.79 19.837c-.082.058-.222 0-.3-.116s-.082-.262 0-.32.222 0 .3.113.082.266 0 .323z"/><path data-name="Path 8" d="M6.482 20.361a.251.251 0 01-.354-.06c-.118-.109-.151-.262-.076-.342s.222-.06.347.051.151.262.073.342z"/><path data-name="Path 9" d="M7.414 20.794c-.033.1-.182.153-.336.109s-.251-.169-.222-.276.182-.156.336-.109.251.169.222.276z"/><path data-name="Path 10" d="M8.442 20.879c0 .111-.125.2-.285.2s-.289-.085-.291-.2.125-.2.287-.2.289.087.289.2z"/><path data-name="Path 11" d="M9.397 20.701c.02.109-.091.222-.249.249s-.3-.038-.32-.147.093-.222.249-.249.301.038.32.147z"/></g><g data-name="Layer 1"><path data-name="Path 4" d="M12.58 0A12.672 12.672 0 00.164 10.828a12.923 12.923 0 008.441 14.3c.625.12.858-.28.858-.621 0-.307-.01-1.321-.017-2.4-3.5.779-4.235-1.52-4.235-1.52a3.376 3.376 0 00-1.4-1.887c-1.141-.8.085-.783.085-.783a2.652 2.652 0 011.93 1.324 2.632 2.632 0 003.66 1.068 2.777 2.777 0 01.8-1.723c-2.784-.322-5.73-1.428-5.73-6.368a5.056 5.056 0 011.3-3.465 4.743 4.743 0 01.121-3.416s1.049-.346 3.455 1.322a11.659 11.659 0 016.3 0C18.12 5 19.184 5.337 19.184 5.337a4.752 4.752 0 01.123 3.416 5.054 5.054 0 011.293 3.461c0 4.953-2.94 6.042-5.74 6.362a3.127 3.127 0 01.852 2.387c0 1.725-.012 3.115-.012 3.537 0 .344.225.745.862.619a12.924 12.924 0 008.422-14.294A12.672 12.672 0 0012.58 0z" fill-rule="evenodd"/><path data-name="Path 5" d="M5.092 18.509a.163.163 0 01-.222.042c-.089-.044-.153-.136-.122-.2a.164.164 0 01.222-.042c.087.044.153.136.12.2z"/><path data-name="Path 6" d="M5.294 19.094c-.064.06-.189.031-.276-.062a.2.2 0 01-.038-.278c.067-.06.187-.031.276.062s.105.223.038.278z"/><path data-name="Path 7" d="M5.79 19.837c-.082.058-.222 0-.3-.116s-.082-.262 0-.32.222 0 .3.113.082.266 0 .323z"/><path data-name="Path 8" d="M6.482 20.361a.251.251 0 01-.354-.06c-.118-.109-.151-.262-.076-.342s.222-.06.347.051.151.262.073.342z"/><path data-name="Path 9" d="M7.414 20.794c-.033.1-.182.153-.336.109s-.251-.169-.222-.276.182-.156.336-.109.251.169.222.276z"/><path data-name="Path 10" d="M8.442 20.879c0 .111-.125.2-.285.2s-.289-.085-.291-.2.125-.2.287-.2.289.087.289.2z"/><path data-name="Path 11" d="M9.397 20.701c.02.109-.091.222-.249.249s-.3-.038-.32-.147.093-.222.249-.249.301.038.32.147z"/></g></g></svg>