<svg xmlns="http://www.w3.org/2000/svg" width="81.039" height="114.366"><path data-name="Path 22" d="M7.549 0h5.138v5.092h4.736V0h5.138v15.411h-5.138v-5.137h-4.691v5.137H7.549m21.8-10.274h-4.535V0h14.235v5.137h-4.557v10.274h-5.143M41.301 0h5.383l3.306 5.427L53.297 0h5.383v15.411h-5.138V7.772l-3.6 5.539-3.6-5.539v7.638h-5.048M61.227 0h5.138v10.319h7.284v5.092h-12.42" fill="#fff"/><path data-name="Path 23" d="M7.371 105.208L0 22.469h81.039l-7.371 82.695-33.215 9.2" fill="#e44d26"/><path data-name="Path 24" d="M40.524 107.331V29.272h33.122l-6.322 70.577" fill="#f16529"/><path data-name="Path 25" d="M15.056 39.385h25.461v10.14H26.179l.938 10.386h13.4v10.118H17.825m.447 5.092h10.184l.715 8.107 11.346 3.037v10.587l-20.816-5.807" fill="#ebebeb"/><path data-name="Path 26" d="M65.894 39.385H40.477v10.14h24.479m-.916 10.386H40.477v10.14h12.507L51.8 83.228l-11.323 3.037v10.542l20.771-5.762" fill="#fff"/></svg>