<svg xmlns="http://www.w3.org/2000/svg" width="83" height="83"><path data-name="Rectangle 6" fill="#f7df1e" d="M0 0h83v83H0z"/><path data-name="Path 27" d="M55.571 64.639c1.666 2.721 3.834 4.721 7.669 4.721 3.221 0 5.279-1.61 5.279-3.834 0-2.666-2.114-3.61-5.659-5.16l-1.943-.834c-5.61-2.39-9.336-5.384-9.336-11.713 0-5.83 4.442-10.268 11.385-10.268 4.943 0 8.5 1.72 11.056 6.224l-6.055 3.885c-1.333-2.39-2.771-3.331-5-3.331-2.277 0-3.72 1.444-3.72 3.331 0 2.332 1.444 3.276 4.78 4.721l1.943.833c6.6 2.832 10.334 5.72 10.334 12.212 0 7-5.5 10.833-12.882 10.833-7.219 0-11.884-3.44-14.166-7.95zm-27.461.674c1.221 2.167 2.332 4 5 4 2.554 0 4.165-1 4.165-4.885V37.994h7.774v26.538c0 8.049-4.719 11.713-11.608 11.713-6.224 0-9.829-3.221-11.662-7.1z"/></svg>