<svg xmlns="http://www.w3.org/2000/svg" xmlns:xlink="http://www.w3.org/1999/xlink" width="96" height="58.795"><defs><linearGradient id="b" x1=".681" y1=".175" x2=".278" y2=".897" gradientUnits="objectBoundingBox"><stop offset="0" stop-color="#3f873f"/><stop offset=".33" stop-color="#3e8a3d"/><stop offset=".637" stop-color="#3e9537"/><stop offset=".934" stop-color="#3da82d"/><stop offset="1" stop-color="#3dae2b"/></linearGradient><linearGradient id="d" x1=".432" y1=".552" x2="1.591" y2="-.183" gradientUnits="objectBoundingBox"><stop offset=".138" stop-color="#3f873f"/><stop offset=".397" stop-color="#519f44"/><stop offset=".711" stop-color="#63b649"/><stop offset=".908" stop-color="#6abf4b"/></linearGradient><linearGradient id="a" x1="-57.151" y1=".5" x2="68.852" y2=".5" gradientUnits="objectBoundingBox"><stop offset=".092" stop-color="#6abf4b"/><stop offset=".289" stop-color="#63b649"/><stop offset=".603" stop-color="#519f44"/><stop offset=".862" stop-color="#3f873f"/></linearGradient><linearGradient id="e" x1="-.045" x2="1.016" xlink:href="#a"/><linearGradient id="f" x1="-347.794" x2="1" xlink:href="#a"/><linearGradient id="g" x1="-1.037" x2="1.006" xlink:href="#a"/><linearGradient id="h" x1="1.303" y1="-2.11" x2=".044" y2="2.012" xlink:href="#b"/><clipPath id="c"><path data-name="Path 19" d="M205.21 226.075a1.111 1.111 0 00-1.11 0l-9.19 5.3a1.11 1.11 0 00-.555.961v10.615a1.111 1.111 0 00.555.961l9.19 5.308a1.109 1.109 0 001.11 0l9.187-5.308a1.111 1.111 0 00.555-.961v-10.612a1.11 1.11 0 00-.555-.961z" transform="translate(-194.355 -225.926)" fill="url(#b)"/></clipPath></defs><g data-name="Group 8"><g data-name="Group 1" fill="#679e63"><path data-name="Path 1" d="M47.45 58.795a1.827 1.827 0 01-.914-.245l-2.909-1.721c-.434-.243-.222-.329-.079-.379a5.791 5.791 0 001.315-.6.224.224 0 01.216.017l2.235 1.327a.287.287 0 00.27 0l8.714-5.029a.275.275 0 00.133-.236V41.874a.281.281 0 00-.135-.24l-8.71-5.025a.274.274 0 00-.268 0l-8.708 5.027a.28.28 0 00-.138.24v10.055a.267.267 0 00.138.233l2.387 1.379c1.3.648 2.088-.115 2.088-.881v-9.93a.251.251 0 01.253-.251h1.105a.252.252 0 01.252.251v9.929a2.415 2.415 0 01-2.58 2.72 3.727 3.727 0 01-2.007-.545l-2.285-1.315a1.84 1.84 0 01-.914-1.59V41.874a1.836 1.836 0 01.914-1.588l8.713-5.036a1.909 1.909 0 011.832 0l8.715 5.039a1.839 1.839 0 01.916 1.588v10.052a1.844 1.844 0 01-.916 1.59l-8.714 5.032a1.828 1.828 0 01-.918.245z"/><path data-name="Path 2" d="M50.142 51.867c-3.813 0-4.612-1.75-4.612-3.218a.251.251 0 01.252-.251h1.127a.253.253 0 01.25.214c.17 1.147.676 1.726 2.983 1.726 1.836 0 2.617-.414 2.617-1.389 0-.562-.221-.978-3.076-1.258-2.384-.236-3.859-.763-3.859-2.67 0-1.758 1.482-2.807 3.967-2.807 2.792 0 4.173.969 4.348 3.048a.252.252 0 01-.251.274h-1.131a.251.251 0 01-.245-.2c-.271-1.207-.931-1.592-2.721-1.592-2 0-2.237.7-2.237 1.221 0 .634.275.818 2.981 1.177 2.678.354 3.95.855 3.95 2.737.001 1.901-1.582 2.988-4.343 2.988z"/></g><g data-name="Group 2"><path data-name="Path 3" d="M62.635 41.405a1.68 1.68 0 11-1.68-1.68 1.68 1.68 0 011.68 1.68zm-3.088 0a1.408 1.408 0 101.4-1.4 1.408 1.408 0 00-1.4 1.4zm.777-.938h.649c.222 0 .658 0 .658.5a.433.433 0 01-.356.462c.258.018.276.187.311.426a1.856 1.856 0 00.1.5h-.4c-.01-.089-.072-.569-.072-.6-.026-.107-.062-.16-.2-.16h-.328v.755h-.365zm.356.826h.293a.253.253 0 00.284-.266c0-.258-.178-.258-.276-.258h-.3z" fill="#679e63"/></g><path data-name="Path 4" d="M20.708 19.645a1.114 1.114 0 00-.558-.97l-9.238-5.317a1.086 1.086 0 00-.509-.147h-.1a1.1 1.1 0 00-.51.147L.555 18.675a1.119 1.119 0 00-.559.97l.021 14.316a.548.548 0 00.279.482.537.537 0 00.554 0L6.34 31.3a1.124 1.124 0 00.558-.968v-6.693a1.112 1.112 0 01.557-.966l2.338-1.346a1.111 1.111 0 01.559-.15 1.093 1.093 0 01.555.15l2.337 1.346a1.112 1.112 0 01.558.966v6.689a1.127 1.127 0 00.559.968l5.489 3.144a.543.543 0 00.558 0 .557.557 0 00.277-.482z" fill="#fff" fill-rule="evenodd"/><path data-name="Path 5" d="M64.834.071a.558.558 0 00-.83.487v14.178a.39.39 0 01-.586.338l-2.314-1.333a1.116 1.116 0 00-1.115 0l-9.242 5.334a1.116 1.116 0 00-.558.967v10.67a1.117 1.117 0 00.558.967l9.242 5.338a1.116 1.116 0 001.117 0l9.243-5.338a1.116 1.116 0 00.558-.967v-26.6a1.116 1.116 0 00-.572-.974zm-.857 27.134a.278.278 0 01-.14.241l-3.173 1.829a.279.279 0 01-.279 0l-3.172-1.829a.278.278 0 01-.14-.241v-3.664a.28.28 0 01.139-.242l3.173-1.832a.279.279 0 01.279 0l3.173 1.832a.28.28 0 01.139.242z" fill="#fff" fill-rule="evenodd"/><g data-name="Group 3" fill-rule="evenodd"><path data-name="Path 6" d="M95.445 23.332a1.116 1.116 0 00.555-.965v-2.586a1.116 1.116 0 00-.556-.965l-9.183-5.331a1.116 1.116 0 00-1.118 0l-9.238 5.333a1.116 1.116 0 00-.558.966V30.45a1.116 1.116 0 00.564.97l9.181 5.232a1.115 1.115 0 001.094.006l5.553-3.087a.558.558 0 00.007-.972l-9.3-5.335a.558.558 0 01-.281-.484v-3.343a.558.558 0 01.279-.483l2.894-1.668a.557.557 0 01.557 0l2.895 1.668a.557.557 0 01.279.483v2.63a.558.558 0 00.838.483z" fill="#fff"/><path data-name="Path 7" d="M85.566 22.833a.214.214 0 01.214 0l1.774 1.023a.214.214 0 01.107.186v2.048a.215.215 0 01-.107.186l-1.774 1.023a.214.214 0 01-.214 0l-1.772-1.023a.215.215 0 01-.107-.186v-2.048a.215.215 0 01.107-.186z" fill="#679e63"/></g><g data-name="Group 7"><path data-name="Path 8" d="M205.21 226.075a1.111 1.111 0 00-1.11 0l-9.19 5.3a1.11 1.11 0 00-.555.961v10.615a1.111 1.111 0 00.555.961l9.19 5.308a1.109 1.109 0 001.11 0l9.187-5.308a1.111 1.111 0 00.555-.961v-10.612a1.11 1.11 0 00-.555-.961z" transform="translate(-169.206 -212.536)" fill-rule="evenodd" fill="url(#b)"/><g data-name="Group 6" transform="translate(25.149 13.39)" clip-path="url(#c)"><g data-name="Group 4"><path data-name="Path 9" d="M9.723.148l-9.21 5.3a1.147 1.147 0 00-.594.961v10.615a1.074 1.074 0 00.286.706L10.553.03a1.128 1.128 0 00-.83.118z" fill="none"/><path data-name="Path 10" d="M10.608 23.405a1.1 1.1 0 00.259-.108l9.2-5.308a1.134 1.134 0 00.578-.961V6.413a1.1 1.1 0 00-.336-.771z" fill="none"/><path data-name="Path 11" d="M215.165 231.5l-9.216-5.3a1.105 1.105 0 00-.288-.115l-10.348 17.7a1.267 1.267 0 00.31.255l9.232 5.308a1.122 1.122 0 00.857.108l9.7-17.763a1.214 1.214 0 00-.247-.193z" transform="translate(-195.104 -226.048)" fill="url(#d)"/></g><g data-name="Group 5"><path data-name="Path 12" d="M20.644 17.028V6.413a1.137 1.137 0 00-.583-.961l-9.216-5.3a1.11 1.11 0 00-.338-.125l10.1 17.259a1.018 1.018 0 00.037-.258z" fill="none"/><path data-name="Path 13" d="M.517 5.452a1.147 1.147 0 00-.594.961v10.615a1.152 1.152 0 00.6.961l9.232 5.308a1.119 1.119 0 00.71.138L.576 5.42z" fill="none"/><path data-name="Path 14" d="M237.174 217.669l-.126.072h.169z" transform="translate(-227.735 -219.47)" fill="url(#a)"/><path data-name="Path 15" d="M216.471 243.918a1.161 1.161 0 00.543-.706l-10.1-17.259a1.127 1.127 0 00-.781.125l-9.154 5.272 9.889 18.015a1.109 1.109 0 00.406-.138z" transform="translate(-196.404 -225.929)" fill="url(#e)"/><path data-name="Path 16" d="M290.061 307.247l-.061-.1v.139z" transform="translate(-269.137 -289.428)" fill="url(#f)"/><path data-name="Path 17" d="M251.919 305.87l-9.2 5.308a1.108 1.108 0 01-.406.138l.183.334 10.218-5.914v-.136l-.253-.432a1.161 1.161 0 01-.542.702z" transform="translate(-231.852 -287.881)" fill="url(#g)"/><path data-name="Path 18" d="M251.919 305.87l-9.2 5.308a1.108 1.108 0 01-.406.138l.183.334 10.218-5.914v-.136l-.253-.432a1.161 1.161 0 01-.542.702z" transform="translate(-231.852 -287.881)" fill="url(#h)"/></g></g></g></g></svg>