<svg xmlns="http://www.w3.org/2000/svg" width="83.79" height="83.354"><defs><linearGradient id="a" x1=".13" y1=".117" x2=".796" y2=".785" gradientUnits="objectBoundingBox"><stop offset="0" stop-color="#387eb8"/><stop offset="1" stop-color="#366994"/></linearGradient><linearGradient id="b" x1=".191" y1=".203" x2=".907" y2=".888" gradientUnits="objectBoundingBox"><stop offset="0" stop-color="#ffe052"/><stop offset="1" stop-color="#ffc331"/></linearGradient></defs><path d="M86.8 67.469c-21.407 0-20.07 9.283-20.07 9.283l.024 9.617h20.424v2.888H58.636s-13.7-1.553-13.7 20.046 11.956 20.834 11.956 20.834h7.135v-10.023s-.385-11.956 11.765-11.956h20.263s11.383.184 11.383-11V78.661s1.729-11.192-20.638-11.192zm-11.268 6.467a3.675 3.675 0 11-3.675 3.675 3.672 3.672 0 013.675-3.675z" transform="translate(-44.938 -67.469)" fill="url(#a)"/><path d="M94.148 157.919c21.407 0 20.07-9.283 20.07-9.283l-.024-9.617H93.766v-2.888h28.542s13.7 1.553 13.7-20.046-11.958-20.834-11.958-20.834h-7.135v10.023s.385 11.956-11.765 11.956H84.889s-11.383-.184-11.383 11v18.495s-1.729 11.194 20.642 11.194zm11.264-6.467a3.675 3.675 0 113.675-3.675 3.672 3.672 0 01-3.675 3.675z" transform="translate(-52.216 -74.566)" fill="url(#b)"/></svg>