<svg xmlns="http://www.w3.org/2000/svg" width="83.79" height="74.618"><path data-name="Path 28" d="M83.79 37.318c0-5.551-6.951-10.811-17.609-14.073 2.459-10.862 1.366-19.5-3.45-22.271a7.488 7.488 0 00-3.826-.956v3.809a3.955 3.955 0 011.947.444c2.323 1.332 3.33 6.4 2.545 12.929-.188 1.605-.5 3.3-.871 5.021a82.768 82.768 0 00-10.845-1.862 83.31 83.31 0 00-7.1-8.54c5.568-5.175 10.794-8.01 14.346-8.01V0c-4.7 0-10.845 3.347-17.062 9.154C35.648 3.381 29.5.068 24.803.068v3.809c3.535 0 8.779 2.818 14.346 7.959a80.665 80.665 0 00-7.054 8.522 79.756 79.756 0 00-10.862 1.879 51.51 51.51 0 01-.888-4.953c-.8-6.524.188-11.6 2.494-12.946a3.8 3.8 0 011.964-.444V.085a7.615 7.615 0 00-3.86.956c-4.8 2.767-5.875 11.392-3.4 22.22C6.92 26.54.003 31.783.003 37.317c0 5.551 6.951 10.811 17.609 14.073-2.459 10.862-1.366 19.5 3.45 22.271a7.508 7.508 0 003.843.956c4.7 0 10.845-3.348 17.062-9.154 6.217 5.773 12.365 9.086 17.062 9.086a7.615 7.615 0 003.86-.956c4.8-2.767 5.875-11.392 3.4-22.22 10.584-3.261 17.501-8.522 17.501-14.055zM61.553 25.926a77.287 77.287 0 01-2.306 6.746 81.657 81.657 0 00-2.237-4.1 95.255 95.255 0 00-2.459-4c2.425.363 4.765.808 7.002 1.354zm-7.822 18.189a91.312 91.312 0 01-4.116 6.524 88.887 88.887 0 01-7.72.342c-2.579 0-5.158-.12-7.686-.325q-2.126-3.049-4.133-6.49-1.947-3.356-3.552-6.8a89.12 89.12 0 013.535-6.815 91.312 91.312 0 014.116-6.524 88.887 88.887 0 017.72-.342c2.579 0 5.158.12 7.686.325q2.126 3.049 4.133 6.49 1.947 3.356 3.552 6.8a95.447 95.447 0 01-3.535 6.815zm5.517-2.22a73.082 73.082 0 012.357 6.8 76.216 76.216 0 01-7.037 1.366 93.174 93.174 0 002.459-4.048 97.606 97.606 0 002.22-4.118zM41.93 60.118a70.416 70.416 0 01-4.748-5.465c1.537.068 3.108.12 4.7.12 1.605 0 3.194-.034 4.748-.12a66.661 66.661 0 01-4.701 5.465zm-12.707-10.06a76.15 76.15 0 01-7-1.349 77.287 77.287 0 012.306-6.746c.7 1.366 1.435 2.733 2.237 4.1s1.62 2.698 2.456 3.996zm12.621-35.542a70.406 70.406 0 014.748 5.465c-1.537-.068-3.108-.12-4.7-.12-1.605 0-3.194.034-4.748.12a66.663 66.663 0 014.7-5.464zm-12.638 10.06a95.227 95.227 0 00-4.679 8.148 73.082 73.082 0 01-2.357-6.8 84.767 84.767 0 017.035-1.347zM13.749 45.96c-6.046-2.579-9.957-5.961-9.957-8.642s3.911-6.08 9.957-8.642c1.469-.632 3.074-1.2 4.731-1.725a82.026 82.026 0 003.843 10.4 80.872 80.872 0 00-3.792 10.35 51.723 51.723 0 01-4.782-1.741zm9.189 24.406c-2.323-1.332-3.33-6.4-2.545-12.929.188-1.605.5-3.3.871-5.021a82.77 82.77 0 0010.845 1.862 83.316 83.316 0 007.1 8.54c-5.568 5.175-10.794 8.01-14.346 8.01a4.076 4.076 0 01-1.926-.462zM63.45 57.352c.8 6.524-.188 11.6-2.494 12.946a3.8 3.8 0 01-1.964.444c-3.535 0-8.779-2.818-14.346-7.959a80.666 80.666 0 007.054-8.522 79.757 79.757 0 0010.862-1.879 47.822 47.822 0 01.887 4.97zm6.575-11.392c-1.469.632-3.074 1.2-4.731 1.725a82.025 82.025 0 00-3.843-10.4 80.873 80.873 0 003.792-10.35c1.691.529 3.3 1.11 4.8 1.742C76.089 31.256 80 34.638 80 37.319 79.981 40 76.07 43.4 70.024 45.96z" fill="#61dafb"/><circle data-name="Ellipse 6" cx="7.342" cy="7.342" r="7.342" transform="translate(34.535 29.975)" fill="#61dafb"/></svg>