<svg id="CSS.3" xmlns="http://www.w3.org/2000/svg" width="81.039" height="113.628" viewBox="0 0 81.039 113.628">
  <g id="_000000ff" data-name="#000000ff" transform="translate(16.057 0)">
    <path id="Path_13" data-name="Path 13" d="M68.37.852C73.381.79,78.393.833,83.4.831c.012,1.568.036,3.136-.021,4.7-3.472-.024-6.942,0-10.412.021-.024,2.277-.069,4.553-.048,6.83,3.484.021,6.971.055,10.455.041.041,1.289.026,2.582-.012,3.873-5-.033-9.994-.019-14.992-.014C68.387,11.14,68.4,6,68.37.852Z" transform="translate(-68.37 -0.819)" fill="#fff"/>
    <path id="Path_14" data-name="Path 14" d="M138.782.836C143.855.826,148.929.8,154,.853c-.019,1.482,0,2.962,0,4.444q-5.538-.018-11.078.048.007.873,0,1.747c3.687.06,7.372.067,11.056.088.014,3.038.007,6.073.026,9.109q-7.614-.014-15.228.019c-.026-1.227-.029-2.451.007-3.677,3.518.01,7.038.014,10.555-.014.021-.79.031-1.582.029-2.372-3.534,0-7.071.012-10.605-.012C138.763,7.1,138.763,3.967,138.782.836Z" transform="translate(-121.96 -0.819)" fill="#fff"/>
    <path id="Path_15" data-name="Path 15" d="M209.575,1h15.194c.021,1.489.043,2.978,0,4.465-3.709,0-7.417.019-11.126.026.01.609.024,1.217.055,1.826,3.687-.017,7.374.029,11.059.067.033,3.024.057,6.047.014,9.071q-7.614-.021-15.228.01c-.031-1.222-.041-2.448.012-3.67q5.266.039,10.536-.012c.01-.792.026-1.585.019-2.374-3.525.033-7.052.014-10.579,0C209.527,7.274,209.551,4.136,209.575,1Z" transform="translate(-175.831 -0.957)" fill="#fff"/>
  </g>
  <g id="_0170baff" data-name="#0170baff" transform="translate(0 21.867)">
    <path id="Path_16" data-name="Path 16" d="M0,92.451q40.521,0,81.039,0c-1.487,16.775-2.95,33.551-4.5,50.321q-1.38,16.078-2.869,32.149c-5.765,1.525-11.472,3.263-17.235,4.795-5.293,1.551-10.628,2.955-15.923,4.494h-.157c-5.039-1.5-10.128-2.813-15.167-4.309-5.947-1.6-11.842-3.386-17.792-4.979-.775-8.029-1.475-16.063-2.165-24.1-1.3-14.843-2.718-29.677-3.97-44.523C.83,101.834.519,97.352,0,92.894v-.443m40.646,6.618c-.057,3.222.043,6.447-.057,9.667-9.267-.033-18.536-.007-27.8,0,.159,3.128.579,6.234,1.01,9.336,8.622.32,17.256-.012,25.878.246-7.543,3.379-15.179,6.561-22.755,9.869a10.229,10.229,0,0,0-1.925.928c.064,3.436.619,6.852.863,10.281,4.6-.017,9.189-.09,13.784-.1,3.683-.019,7.368.054,11.05-.026-.175,5.649.055,11.306-.119,16.955-2.478-.367-4.925-.919-7.394-1.357-1.947-.424-3.941-.644-5.859-1.2-.273-2.711-.462-5.432-.7-8.145a6.147,6.147,0,0,0-1.717-.163c-2.784.017-5.57-.009-8.356.033a154.843,154.843,0,0,0,1.541,15.591c2.746.715,5.5,1.416,8.238,2.162,4.2,1.141,8.451,2.091,12.658,3.213a5.322,5.322,0,0,0,1.525.249c.28,3.431.064,6.883.116,10.323a21.112,21.112,0,0,0,2.86-.684c7.963-2.159,15.916-4.359,23.874-6.54.4-3.125.581-6.272.894-9.4q1.241-14.285,2.53-28.567c1.017-10.892,1.9-21.795,2.921-32.686C62.681,99.064,51.664,99.033,40.646,99.069Z" transform="translate(0 -92.448)" fill="#0170ba"/>
  </g>
  <g id="_29a9dfff" data-name="#29a9dfff" transform="translate(40.246 27.797)">
    <path id="Path_17" data-name="Path 17" d="M170.953,120.353c11.087-.036,22.175,0,33.264-.014-1.031,10.978-1.916,21.967-2.94,32.945q-1.31,14.394-2.546,28.792c-.315,3.157-.5,6.329-.9,9.479-8.009,2.2-16.013,4.415-24.027,6.591a21.217,21.217,0,0,1-2.878.69c-.052-3.467.165-6.947-.117-10.4l.289-.057c7.453-1.871,14.855-3.93,22.292-5.868.94-10.548,1.983-21.091,2.644-31.661-6.324.033-12.65.014-18.974.041-.921,0-1.842,0-2.759-.067,3.4-1.752,6.983-3.141,10.476-4.7,3.353-1.52,6.746-2.945,10.111-4.436a9.367,9.367,0,0,0,1.912-.99,15.743,15.743,0,0,0,.3-2.527c.193-2.673.537-5.331.666-8.006-8.956-.072-17.912-.01-26.871-.057C171,126.852,170.9,123.6,170.953,120.353Z" transform="translate(-170.81 -120.336)" fill="#29a9df"/>
    <path id="Path_18" data-name="Path 18" d="M171.219,290.14c4.324-.074,8.651.043,12.977.014-.241,4.422-.609,8.837-.838,13.259-2.651.866-5.343,1.6-8.016,2.4a31.167,31.167,0,0,0-4.243,1.415C171.274,301.536,171.043,295.834,171.219,290.14Z" transform="translate(-171.031 -249.599)" fill="#29a9df"/>
  </g>
  <g id="_cfcfcfff" data-name="#cfcfcfff" transform="translate(12.743 37.772)">
    <path id="Path_19" data-name="Path 19" d="M53.92,161.19c9.326-.01,18.655-.036,27.981,0,.122,10.262-.031,20.523.1,30.78-3.706.081-7.415.007-11.121.026-4.625.007-9.247.081-13.872.1-.246-3.456-.8-6.9-.869-10.362a10.288,10.288,0,0,1,1.938-.935c7.625-3.334,15.309-6.541,22.9-9.947-8.677-.26-17.366.074-26.043-.248C54.5,167.473,54.08,164.342,53.92,161.19Z" transform="translate(-53.92 -161.171)" fill="#cfcfcf"/>
    <path id="Path_20" data-name="Path 20" d="M69.76,315.973c2.8-.043,5.608-.017,8.41-.033a6.179,6.179,0,0,1,1.728.165c.243,2.735.434,5.477.709,8.209,1.931.561,3.938.783,5.9,1.21,2.484.442,4.947,1,7.441,1.367.239,3.465-.179,6.954.22,10.407l-.289.057a5.35,5.35,0,0,1-1.534-.251c-4.234-1.131-8.512-2.088-12.739-3.238-2.759-.752-5.527-1.458-8.29-2.179A156.3,156.3,0,0,1,69.76,315.973Z" transform="translate(-65.98 -279.006)" fill="#cfcfcf"/>
  </g>
  <g id="_ffffffff" data-name="#ffffffff" transform="translate(40.446 37.789)">
    <path id="Path_21" data-name="Path 21" d="M171.117,161.24c8.959.048,17.915-.014,26.871.057-.129,2.675-.473,5.334-.666,8.006a15.745,15.745,0,0,1-.3,2.527,9.368,9.368,0,0,1-1.912.99c-3.365,1.492-6.758,2.916-10.111,4.436-3.494,1.563-7.073,2.952-10.476,4.7.916.067,1.838.072,2.759.067,6.324-.026,12.65-.007,18.974-.041-.661,10.569-1.7,21.113-2.644,31.661-7.436,1.938-14.839,4-22.292,5.868-.4-3.453.019-6.942-.22-10.407a31.159,31.159,0,0,1,4.243-1.415c2.673-.8,5.365-1.534,8.016-2.4.229-4.422.6-8.837.838-13.259-4.327.029-8.653-.088-12.977-.014C171.086,181.763,171.238,171.5,171.117,161.24Z" transform="translate(-171.1 -161.24)" fill="#fff"/>
  </g>
</svg>
