<svg xmlns="http://www.w3.org/2000/svg" xmlns:xlink="http://www.w3.org/1999/xlink" width="96" height="58.795" viewBox="0 0 96 58.795">
  <defs>
    <linearGradient id="linear-gradient" x1="0.681" y1="0.175" x2="0.278" y2="0.897" gradientUnits="objectBoundingBox">
      <stop offset="0" stop-color="#3f873f"/>
      <stop offset="0.33" stop-color="#3e8a3d"/>
      <stop offset="0.637" stop-color="#3e9537"/>
      <stop offset="0.934" stop-color="#3da82d"/>
      <stop offset="1" stop-color="#3dae2b"/>
    </linearGradient>
    <clipPath id="clip-path">
      <path id="Path_19" data-name="Path 19" d="M205.21,226.075a1.111,1.111,0,0,0-1.11,0l-9.19,5.3a1.11,1.11,0,0,0-.555.961v10.615a1.111,1.111,0,0,0,.555.961l9.19,5.308a1.109,1.109,0,0,0,1.11,0l9.187-5.308a1.111,1.111,0,0,0,.555-.961V232.339a1.11,1.11,0,0,0-.555-.961Z" transform="translate(-194.355 -225.926)" fill="url(#linear-gradient)"/>
    </clipPath>
    <linearGradient id="linear-gradient-3" x1="0.432" y1="0.552" x2="1.591" y2="-0.183" gradientUnits="objectBoundingBox">
      <stop offset="0.138" stop-color="#3f873f"/>
      <stop offset="0.397" stop-color="#519f44"/>
      <stop offset="0.711" stop-color="#63b649"/>
      <stop offset="0.908" stop-color="#6abf4b"/>
    </linearGradient>
    <linearGradient id="linear-gradient-4" x1="-57.151" y1="0.5" x2="68.852" y2="0.5" gradientUnits="objectBoundingBox">
      <stop offset="0.092" stop-color="#6abf4b"/>
      <stop offset="0.289" stop-color="#63b649"/>
      <stop offset="0.603" stop-color="#519f44"/>
      <stop offset="0.862" stop-color="#3f873f"/>
    </linearGradient>
    <linearGradient id="linear-gradient-5" x1="-0.045" x2="1.016" xlink:href="#linear-gradient-4"/>
    <linearGradient id="linear-gradient-6" x1="-347.794" x2="1" xlink:href="#linear-gradient-4"/>
    <linearGradient id="linear-gradient-7" x1="-1.037" x2="1.006" xlink:href="#linear-gradient-4"/>
    <linearGradient id="linear-gradient-8" x1="1.303" y1="-2.11" x2="0.044" y2="2.012" xlink:href="#linear-gradient"/>
  </defs>
  <g id="Group_8" data-name="Group 8" transform="translate(-78.306 -164.016)">
    <g id="Group_1" data-name="Group 1" transform="translate(115.215 199.032)">
      <path id="Path_1" data-name="Path 1" d="M259.167,349.706a1.827,1.827,0,0,1-.914-.245l-2.909-1.721c-.434-.243-.222-.329-.079-.379a5.791,5.791,0,0,0,1.315-.6.224.224,0,0,1,.216.017l2.235,1.327a.287.287,0,0,0,.27,0l8.714-5.029a.275.275,0,0,0,.133-.236V332.785a.281.281,0,0,0-.135-.24l-8.71-5.025a.274.274,0,0,0-.268,0l-8.708,5.027a.28.28,0,0,0-.138.24v10.055a.267.267,0,0,0,.138.233l2.387,1.379c1.3.648,2.088-.115,2.088-.881v-9.93a.251.251,0,0,1,.253-.251h1.105a.252.252,0,0,1,.252.251v9.929a2.415,2.415,0,0,1-2.58,2.72,3.727,3.727,0,0,1-2.007-.545l-2.285-1.315a1.84,1.84,0,0,1-.914-1.59V332.785a1.836,1.836,0,0,1,.914-1.588l8.713-5.036a1.909,1.909,0,0,1,1.832,0L268.8,331.2a1.839,1.839,0,0,1,.916,1.588V342.84a1.844,1.844,0,0,1-.916,1.59l-8.714,5.032a1.828,1.828,0,0,1-.918.245Z" transform="translate(-248.626 -325.927)" fill="#679e63"/>
      <path id="Path_2" data-name="Path 2" d="M292.761,368.577c-3.813,0-4.612-1.75-4.612-3.218a.251.251,0,0,1,.252-.251h1.127a.253.253,0,0,1,.25.214c.17,1.147.676,1.726,2.983,1.726,1.836,0,2.617-.414,2.617-1.389,0-.562-.221-.978-3.076-1.258-2.384-.236-3.859-.763-3.859-2.67,0-1.758,1.482-2.807,3.967-2.807,2.792,0,4.173.969,4.348,3.048a.252.252,0,0,1-.251.274h-1.131a.251.251,0,0,1-.245-.2c-.271-1.207-.931-1.592-2.721-1.592-2,0-2.237.7-2.237,1.221,0,.634.275.818,2.981,1.177,2.678.354,3.95.855,3.95,2.737C297.105,367.49,295.522,368.577,292.761,368.577Z" transform="translate(-279.528 -351.726)" fill="#679e63"/>
    </g>
    <g id="Group_2" data-name="Group 2" transform="translate(137.582 203.742)">
      <path id="Path_3" data-name="Path 3" d="M354.859,348.81a1.68,1.68,0,1,1-1.68-1.68,1.68,1.68,0,0,1,1.68,1.68Zm-3.088,0a1.408,1.408,0,1,0,1.4-1.4,1.408,1.408,0,0,0-1.4,1.4Zm.777-.938h.649c.222,0,.658,0,.658.5a.433.433,0,0,1-.356.462c.258.018.276.187.311.426a1.856,1.856,0,0,0,.1.5h-.4c-.01-.089-.072-.569-.072-.6-.026-.107-.062-.16-.2-.16h-.328v.755h-.365Zm.356.826h.293a.253.253,0,0,0,.284-.266c0-.258-.178-.258-.276-.258h-.3Z" transform="translate(-351.5 -347.131)" fill="#679e63"/>
    </g>
    <path id="Path_4" data-name="Path 4" d="M99.014,231.506a1.114,1.114,0,0,0-.558-.97l-9.238-5.317a1.086,1.086,0,0,0-.509-.147h-.1a1.1,1.1,0,0,0-.51.147l-9.238,5.317a1.119,1.119,0,0,0-.559.97l.021,14.316a.548.548,0,0,0,.279.482.537.537,0,0,0,.554,0l5.49-3.143a1.124,1.124,0,0,0,.558-.968V235.5a1.112,1.112,0,0,1,.557-.966l2.338-1.346a1.111,1.111,0,0,1,.559-.15,1.093,1.093,0,0,1,.555.15l2.337,1.346a1.112,1.112,0,0,1,.558.966v6.689a1.127,1.127,0,0,0,.559.968l5.489,3.144a.543.543,0,0,0,.558,0,.557.557,0,0,0,.277-.482Z" transform="translate(0 -47.845)" fill="#fff" fill-rule="evenodd"/>
    <path id="Path_5" data-name="Path 5" d="M324.545,164.087a.558.558,0,0,0-.83.487v14.178a.39.39,0,0,1-.586.338l-2.314-1.333a1.116,1.116,0,0,0-1.115,0l-9.242,5.334a1.116,1.116,0,0,0-.558.967v10.67a1.117,1.117,0,0,0,.558.967l9.242,5.338a1.116,1.116,0,0,0,1.117,0l9.243-5.338a1.116,1.116,0,0,0,.558-.967v-26.6a1.116,1.116,0,0,0-.572-.974Zm-.857,27.134a.278.278,0,0,1-.14.241l-3.173,1.829a.279.279,0,0,1-.279,0l-3.172-1.829a.278.278,0,0,1-.14-.241v-3.664a.28.28,0,0,1,.139-.242l3.173-1.832a.279.279,0,0,1,.279,0l3.173,1.832a.28.28,0,0,1,.139.242Z" transform="translate(-181.405)" fill="#fff" fill-rule="evenodd"/>
    <g id="Group_3" data-name="Group 3" transform="translate(153.653 177.35)">
      <path id="Path_6" data-name="Path 6" d="M446.087,235.665a1.116,1.116,0,0,0,.555-.965v-2.586a1.116,1.116,0,0,0-.556-.965l-9.183-5.331a1.116,1.116,0,0,0-1.118,0l-9.238,5.333a1.116,1.116,0,0,0-.558.966v10.666a1.116,1.116,0,0,0,.564.97l9.181,5.232a1.115,1.115,0,0,0,1.094.006l5.553-3.087a.558.558,0,0,0,.007-.972l-9.3-5.335a.558.558,0,0,1-.281-.484v-3.343a.558.558,0,0,1,.279-.483l2.894-1.668a.557.557,0,0,1,.557,0l2.895,1.668a.557.557,0,0,1,.279.483v2.63a.558.558,0,0,0,.838.483Z" transform="translate(-425.989 -225.667)" fill="#fff" fill-rule="evenodd"/>
      <path id="Path_7" data-name="Path 7" d="M466.106,269.111a.214.214,0,0,1,.214,0l1.774,1.023a.214.214,0,0,1,.107.186v2.048a.215.215,0,0,1-.107.186l-1.774,1.023a.214.214,0,0,1-.214,0l-1.772-1.023a.215.215,0,0,1-.107-.186V270.32a.215.215,0,0,1,.107-.186Z" transform="translate(-455.887 -259.612)" fill="#679e63" fill-rule="evenodd"/>
    </g>
    <g id="Group_7" data-name="Group 7" transform="translate(103.455 177.406)">
      <path id="Path_8" data-name="Path 8" d="M205.21,226.075a1.111,1.111,0,0,0-1.11,0l-9.19,5.3a1.11,1.11,0,0,0-.555.961v10.615a1.111,1.111,0,0,0,.555.961l9.19,5.308a1.109,1.109,0,0,0,1.11,0l9.187-5.308a1.111,1.111,0,0,0,.555-.961V232.339a1.11,1.11,0,0,0-.555-.961Z" transform="translate(-194.355 -225.926)" fill-rule="evenodd" fill="url(#linear-gradient)"/>
      <g id="Group_6" data-name="Group 6" transform="translate(0 0)" clip-path="url(#clip-path)">
        <g id="Group_4" data-name="Group 4" transform="translate(-0.077 0)">
          <path id="Path_9" data-name="Path 9" d="M203.8,226.076l-9.21,5.3a1.147,1.147,0,0,0-.594.961v10.615a1.074,1.074,0,0,0,.286.706l10.348-17.7A1.128,1.128,0,0,0,203.8,226.076Z" transform="translate(-194 -225.928)" fill="none"/>
          <path id="Path_10" data-name="Path 10" d="M242.988,269.556a1.1,1.1,0,0,0,.259-.108l9.2-5.308a1.134,1.134,0,0,0,.578-.961V252.564a1.1,1.1,0,0,0-.336-.771Z" transform="translate(-232.303 -246.151)" fill="none"/>
          <path id="Path_11" data-name="Path 11" d="M215.165,231.5l-9.216-5.3a1.105,1.105,0,0,0-.288-.115l-10.348,17.7a1.267,1.267,0,0,0,.31.255l9.232,5.308a1.122,1.122,0,0,0,.857.108l9.7-17.763A1.214,1.214,0,0,0,215.165,231.5Z" transform="translate(-195.027 -226.048)" fill="url(#linear-gradient-3)"/>
        </g>
        <g id="Group_5" data-name="Group 5" transform="translate(-0.077 -1.801)">
          <path id="Path_12" data-name="Path 12" d="M252.662,243.04V232.425a1.137,1.137,0,0,0-.583-.961l-9.216-5.3a1.11,1.11,0,0,0-.338-.125l10.1,17.259A1.018,1.018,0,0,0,252.662,243.04Z" transform="translate(-231.941 -224.211)" fill="none"/>
          <path id="Path_13" data-name="Path 13" d="M194.594,250.807a1.147,1.147,0,0,0-.594.961v10.615a1.152,1.152,0,0,0,.6.961l9.232,5.308a1.119,1.119,0,0,0,.71.138l-9.889-18.015Z" transform="translate(-194 -243.554)" fill="none"/>
          <path id="Path_14" data-name="Path 14" d="M237.174,217.669l-.126.072h.169Z" transform="translate(-227.658 -217.669)" fill="url(#linear-gradient-4)"/>
          <path id="Path_15" data-name="Path 15" d="M216.471,243.918a1.161,1.161,0,0,0,.543-.706l-10.1-17.259a1.127,1.127,0,0,0-.781.125l-9.154,5.272,9.889,18.015a1.109,1.109,0,0,0,.406-.138Z" transform="translate(-196.327 -224.128)" fill="url(#linear-gradient-5)"/>
          <path id="Path_16" data-name="Path 16" d="M290.061,307.247l-.061-.1v.139Z" transform="translate(-269.06 -287.627)" fill="url(#linear-gradient-6)"/>
          <path id="Path_17" data-name="Path 17" d="M251.919,305.87l-9.2,5.308a1.108,1.108,0,0,1-.406.138l.183.334,10.218-5.914V305.6l-.253-.432A1.161,1.161,0,0,1,251.919,305.87Z" transform="translate(-231.775 -286.08)" fill="url(#linear-gradient-7)"/>
          <path id="Path_18" data-name="Path 18" d="M251.919,305.87l-9.2,5.308a1.108,1.108,0,0,1-.406.138l.183.334,10.218-5.914V305.6l-.253-.432A1.161,1.161,0,0,1,251.919,305.87Z" transform="translate(-231.775 -286.08)" fill="url(#linear-gradient-8)"/>
        </g>
      </g>
    </g>
  </g>
</svg>
