<svg id="React-icon" xmlns="http://www.w3.org/2000/svg" width="83.79" height="74.618" viewBox="0 0 83.79 74.618">
  <path id="Path_28" data-name="Path 28" d="M259.49,115.318c0-5.551-6.951-10.811-17.609-14.073,2.459-10.862,1.366-19.5-3.45-22.271a7.488,7.488,0,0,0-3.826-.956v3.809a3.955,3.955,0,0,1,1.947.444c2.323,1.332,3.33,6.4,2.545,12.929-.188,1.605-.5,3.3-.871,5.021a82.768,82.768,0,0,0-10.845-1.862,83.31,83.31,0,0,0-7.1-8.54c5.568-5.175,10.794-8.01,14.346-8.01V78h0c-4.7,0-10.845,3.347-17.062,9.154-6.217-5.773-12.365-9.086-17.062-9.086v3.809c3.535,0,8.779,2.818,14.346,7.959a80.665,80.665,0,0,0-7.054,8.522,79.756,79.756,0,0,0-10.862,1.879c-.393-1.708-.683-3.365-.888-4.953-.8-6.524.188-11.6,2.494-12.946a3.8,3.8,0,0,1,1.964-.444V78.085h0a7.615,7.615,0,0,0-3.86.956c-4.8,2.767-5.875,11.392-3.4,22.22-10.623,3.279-17.54,8.522-17.54,14.056,0,5.551,6.951,10.811,17.609,14.073-2.459,10.862-1.366,19.5,3.45,22.271a7.508,7.508,0,0,0,3.843.956c4.7,0,10.845-3.348,17.062-9.154,6.217,5.773,12.365,9.086,17.062,9.086a7.615,7.615,0,0,0,3.86-.956c4.8-2.767,5.875-11.392,3.4-22.22C252.573,126.112,259.49,120.851,259.49,115.318Zm-22.237-11.392c-.632,2.2-1.418,4.475-2.306,6.746-.7-1.366-1.435-2.733-2.237-4.1-.786-1.366-1.623-2.7-2.459-4C232.676,102.935,235.016,103.38,237.253,103.926Zm-7.822,18.189c-1.332,2.306-2.7,4.492-4.116,6.524-2.545.222-5.124.342-7.72.342-2.579,0-5.158-.12-7.686-.325q-2.126-3.049-4.133-6.49-1.947-3.356-3.552-6.8c1.059-2.289,2.254-4.577,3.535-6.815,1.332-2.306,2.7-4.492,4.116-6.524,2.545-.222,5.124-.342,7.72-.342,2.579,0,5.158.12,7.686.325q2.126,3.049,4.133,6.49,1.947,3.356,3.552,6.8C231.89,117.589,230.712,119.878,229.431,122.115Zm5.517-2.22c.922,2.289,1.708,4.577,2.357,6.8-2.237.547-4.594,1.008-7.037,1.366.837-1.315,1.674-2.664,2.459-4.048C233.513,122.645,234.247,121.261,234.947,119.895Zm-17.318,18.223a70.416,70.416,0,0,1-4.748-5.465c1.537.068,3.108.12,4.7.12,1.605,0,3.194-.034,4.748-.12A66.661,66.661,0,0,1,217.629,138.118Zm-12.707-10.06c-2.425-.359-4.765-.8-7-1.349.632-2.2,1.418-4.475,2.306-6.746.7,1.366,1.435,2.733,2.237,4.1S204.086,126.761,204.922,128.059Zm12.621-35.542a70.406,70.406,0,0,1,4.748,5.465c-1.537-.068-3.108-.12-4.7-.12-1.605,0-3.194.034-4.748.12A66.663,66.663,0,0,1,217.544,92.517Zm-12.638,10.06c-.837,1.315-1.674,2.664-2.459,4.048-.786,1.366-1.52,2.733-2.22,4.1-.922-2.289-1.708-4.577-2.357-6.8C200.106,103.4,202.463,102.935,204.905,102.577ZM189.449,123.96c-6.046-2.579-9.957-5.961-9.957-8.642s3.911-6.08,9.957-8.642c1.469-.632,3.074-1.2,4.731-1.725a82.026,82.026,0,0,0,3.843,10.4,80.872,80.872,0,0,0-3.792,10.35C192.54,125.172,190.935,124.592,189.449,123.96Zm9.189,24.406c-2.323-1.332-3.33-6.4-2.545-12.929.188-1.605.5-3.3.871-5.021a82.77,82.77,0,0,0,10.845,1.862,83.316,83.316,0,0,0,7.1,8.54c-5.568,5.175-10.794,8.01-14.346,8.01A4.076,4.076,0,0,1,198.637,148.366Zm40.512-13.014c.8,6.524-.188,11.6-2.494,12.946a3.8,3.8,0,0,1-1.964.444c-3.535,0-8.779-2.818-14.346-7.959a80.666,80.666,0,0,0,7.054-8.522,79.757,79.757,0,0,0,10.862-1.879A47.822,47.822,0,0,1,239.149,135.352Zm6.575-11.392c-1.469.632-3.074,1.2-4.731,1.725a82.025,82.025,0,0,0-3.843-10.4,80.873,80.873,0,0,0,3.792-10.35c1.691.529,3.3,1.11,4.8,1.742,6.046,2.579,9.957,5.961,9.957,8.642C255.681,118,251.77,121.4,245.724,123.96Z" transform="translate(-175.7 -78)" fill="#61dafb"/>
  <path id="Path_29" data-name="Path 29" d="M320.8,78.4Z" transform="translate(-296.018 -78.336)" fill="#61dafb"/>
  <circle id="Ellipse_6" data-name="Ellipse 6" cx="7.342" cy="7.342" r="7.342" transform="translate(34.535 29.975)" fill="#61dafb"/>
  <path id="Path_30" data-name="Path 30" d="M520.5,78.1Z" transform="translate(-461.611 -78.084)" fill="#61dafb"/>
</svg>
