<svg xmlns="http://www.w3.org/2000/svg" width="96" height="27.803" viewBox="0 0 96 27.803">
  <path id="express-109" d="M.625,21.68V11h13.34v-.625H.625V.625H14.808V0H0V22.305H14.933V21.68H.625ZM26.96,6.248l-5.529,7.279-5.4-7.279h-.812L21.056,14l-6.4,8.309h.75l6.029-7.841,6.061,7.841h.781L21.836,14,27.71,6.248h-.75ZM30.146,27.8v-10h.062a6.416,6.416,0,0,0,2.218,3.515,6.53,6.53,0,0,0,4.217,1.328,6.1,6.1,0,0,0,5.077-2.5,8.507,8.507,0,0,0,1.312-2.687,11.284,11.284,0,0,0,.453-3.217,11.375,11.375,0,0,0-.469-3.343,8,8,0,0,0-1.359-2.655A6.246,6.246,0,0,0,39.5,6.5a6.368,6.368,0,0,0-2.858-.625,6.933,6.933,0,0,0-2.265.359,6.063,6.063,0,0,0-1.859,1.015,6.876,6.876,0,0,0-1.406,1.546,7.121,7.121,0,0,0-.906,1.953h-.062v-4.5h-.625V27.8h.625Zm6.5-5.748a5.988,5.988,0,0,1-4.717-2.015,8.482,8.482,0,0,1-1.781-5.8,9.933,9.933,0,0,1,.437-2.968A7.686,7.686,0,0,1,31.849,8.81,6.076,6.076,0,0,1,33.9,7.123,5.936,5.936,0,0,1,36.644,6.5a5.723,5.723,0,0,1,2.734.625,5.541,5.541,0,0,1,1.937,1.7,7.927,7.927,0,0,1,1.156,2.468,10.873,10.873,0,0,1,.39,2.952,11.126,11.126,0,0,1-.359,2.8,7.993,7.993,0,0,1-1.109,2.5,6.036,6.036,0,0,1-1.921,1.812,5.4,5.4,0,0,1-2.827.7Zm10.278.25V13.214a8.859,8.859,0,0,1,.375-2.562,6.273,6.273,0,0,1,1.156-2.2,5.417,5.417,0,0,1,1.984-1.5A6.021,6.021,0,0,1,53.3,6.5V5.873a7.74,7.74,0,0,0-2.515.312,6.107,6.107,0,0,0-1.859.937,4.787,4.787,0,0,0-1.249,1.39,6.216,6.216,0,0,0-.687,1.7h-.062V6.248H46.3V22.305h.625Zm7.154-7.9H67.509a11.118,11.118,0,0,0-.328-3.186A7.925,7.925,0,0,0,65.932,8.5a6.362,6.362,0,0,0-2.218-1.906,6.828,6.828,0,0,0-3.233-.719,6.575,6.575,0,0,0-4.874,2.2,8.322,8.322,0,0,0-1.562,2.64,9.976,9.976,0,0,0-.594,3.561,13.061,13.061,0,0,0,.406,3.327,7.8,7.8,0,0,0,1.25,2.687,5.639,5.639,0,0,0,2.171,1.765,7.184,7.184,0,0,0,3.2.594A7.025,7.025,0,0,0,65.1,21.1a6.4,6.4,0,0,0,2.218-4.358H66.7a6.007,6.007,0,0,1-2.078,3.983,6.544,6.544,0,0,1-4.2,1.328,6.451,6.451,0,0,1-2.905-.593,5.264,5.264,0,0,1-1.937-1.625,7.085,7.085,0,0,1-1.109-2.421,13.024,13.024,0,0,1-.391-3.015Zm12.808-.625H54.076a9.657,9.657,0,0,1,.625-3.03,7.512,7.512,0,0,1,1.39-2.3,5.81,5.81,0,0,1,2-1.453,6.041,6.041,0,0,1,2.452-.5,6.208,6.208,0,0,1,2.749.578,5.679,5.679,0,0,1,1.984,1.578,6.958,6.958,0,0,1,1.2,2.327A9.507,9.507,0,0,1,66.884,13.777ZM80.474,11H81.1a4.648,4.648,0,0,0-1.562-3.905,6.736,6.736,0,0,0-4.249-1.218,7.452,7.452,0,0,0-2.53.375,5.059,5.059,0,0,0-1.687.968,3.485,3.485,0,0,0-.937,1.312A3.769,3.769,0,0,0,69.852,9.9,4.046,4.046,0,0,0,70.321,12a3.084,3.084,0,0,0,1.468,1.218,11.309,11.309,0,0,0,1.562.562q.875.25,2.031.531,1.031.25,2.031.5a7.335,7.335,0,0,1,1.765.672,3.815,3.815,0,0,1,1.25,1.078,2.824,2.824,0,0,1,.484,1.718,3.056,3.056,0,0,1-.484,1.749A3.9,3.9,0,0,1,79.193,21.2a5.5,5.5,0,0,1-1.671.656,8.336,8.336,0,0,1-1.8.2,6.631,6.631,0,0,1-4.358-1.265,4.9,4.9,0,0,1-1.515-3.983h-.625a5.536,5.536,0,0,0,1.64,4.436,7.289,7.289,0,0,0,4.858,1.406,9.488,9.488,0,0,0,2.077-.234,5.773,5.773,0,0,0,1.874-.765,4.236,4.236,0,0,0,1.343-1.374,3.884,3.884,0,0,0,.516-2.062,3.47,3.47,0,0,0-.453-1.874A3.8,3.8,0,0,0,79.9,15.151a6.3,6.3,0,0,0-1.656-.734q-.927-.267-1.859-.516-1.147-.3-2.3-.593a13.939,13.939,0,0,1-1.827-.594,3.1,3.1,0,0,1-1.3-.984A2.983,2.983,0,0,1,70.477,9.9a4.305,4.305,0,0,1,.125-.781,2.8,2.8,0,0,1,.594-1.14,4,4,0,0,1,1.437-1.031A6.381,6.381,0,0,1,75.288,6.5a8.311,8.311,0,0,1,2.109.25,4.384,4.384,0,0,1,1.64.8A3.625,3.625,0,0,1,80.1,8.935,5.067,5.067,0,0,1,80.474,11Zm14.464,0h.625A4.647,4.647,0,0,0,94,7.091a6.736,6.736,0,0,0-4.249-1.218,7.451,7.451,0,0,0-2.53.375,5.056,5.056,0,0,0-1.687.968A3.484,3.484,0,0,0,84.6,8.528,3.769,3.769,0,0,0,84.316,9.9,4.046,4.046,0,0,0,84.785,12a3.083,3.083,0,0,0,1.468,1.218,11.315,11.315,0,0,0,1.562.562q.875.25,2.031.531,1.031.25,2.031.5a7.337,7.337,0,0,1,1.765.672,3.815,3.815,0,0,1,1.249,1.078,2.822,2.822,0,0,1,.484,1.718,3.057,3.057,0,0,1-.484,1.749A3.9,3.9,0,0,1,93.657,21.2a5.5,5.5,0,0,1-1.672.656,8.335,8.335,0,0,1-1.8.2,6.63,6.63,0,0,1-4.358-1.265,4.9,4.9,0,0,1-1.515-3.983h-.625a5.535,5.535,0,0,0,1.64,4.436,7.289,7.289,0,0,0,4.858,1.406,9.486,9.486,0,0,0,2.077-.234,5.776,5.776,0,0,0,1.874-.765,4.236,4.236,0,0,0,1.343-1.374A3.884,3.884,0,0,0,96,18.213a3.469,3.469,0,0,0-.453-1.874,3.8,3.8,0,0,0-1.187-1.187,6.3,6.3,0,0,0-1.656-.734q-.927-.267-1.859-.516-1.147-.3-2.3-.593a13.933,13.933,0,0,1-1.828-.594,3.1,3.1,0,0,1-1.3-.984A2.983,2.983,0,0,1,84.941,9.9a4.293,4.293,0,0,1,.125-.781,2.8,2.8,0,0,1,.593-1.14A4,4,0,0,1,87.1,6.951,6.382,6.382,0,0,1,89.752,6.5a8.311,8.311,0,0,1,2.109.25,4.385,4.385,0,0,1,1.64.8,3.625,3.625,0,0,1,1.062,1.39A5.067,5.067,0,0,1,94.938,11Z" fill="#fff"/>
</svg>
