<svg xmlns="http://www.w3.org/2000/svg" width="25.147" height="25.146" viewBox="0 0 25.147 25.146">
  <g id="Layer_2" data-name="Layer 2" transform="translate(0.026)">
    <g id="Layer_1" data-name="Layer 1" transform="translate(-0.026 0)">
      <path id="Path_4" data-name="Path 4" d="M12.554,0A12.672,12.672,0,0,0,.138,10.828a12.923,12.923,0,0,0,8.441,14.3c.625.12.858-.28.858-.621,0-.307-.01-1.321-.017-2.4-3.5.779-4.235-1.52-4.235-1.52a3.376,3.376,0,0,0-1.4-1.887c-1.141-.8.085-.783.085-.783A2.652,2.652,0,0,1,5.8,19.241,2.632,2.632,0,0,0,9.46,20.309a2.777,2.777,0,0,1,.8-1.723c-2.784-.322-5.73-1.428-5.73-6.368a5.056,5.056,0,0,1,1.3-3.465,4.743,4.743,0,0,1,.121-3.416S7,4.991,9.406,6.659a11.659,11.659,0,0,1,6.3,0C18.094,5,19.158,5.337,19.158,5.337a4.752,4.752,0,0,1,.123,3.416,5.054,5.054,0,0,1,1.293,3.461c0,4.953-2.94,6.042-5.74,6.362a3.127,3.127,0,0,1,.852,2.387c0,1.725-.012,3.115-.012,3.537,0,.344.225.745.862.619a12.924,12.924,0,0,0,8.422-14.294A12.672,12.672,0,0,0,12.554,0Z" transform="translate(0.026 0)" fill="#fff" fill-rule="evenodd"/>
      <path id="Path_5" data-name="Path 5" d="M21.637,85.909a.163.163,0,0,1-.222.042c-.089-.044-.153-.136-.122-.2a.164.164,0,0,1,.222-.042c.087.044.153.136.12.2Z" transform="translate(-16.545 -67.4)" fill="#fff"/>
      <path id="Path_6" data-name="Path 6" d="M24.09,88.13c-.064.06-.189.031-.276-.062a.2.2,0,0,1-.038-.278c.067-.06.187-.031.276.062S24.157,88.075,24.09,88.13Z" transform="translate(-18.796 -69.036)" fill="#fff"/>
      <path id="Path_7" data-name="Path 7" d="M26.44,91.306c-.082.058-.222,0-.3-.116s-.082-.262,0-.32.222,0,.3.113S26.522,91.249,26.44,91.306Z" transform="translate(-20.65 -71.469)" fill="#fff"/>
      <path id="Path_8" data-name="Path 8" d="M29.358,94.693a.251.251,0,0,1-.354-.06c-.118-.109-.151-.262-.076-.342s.222-.06.347.051.151.262.073.342Z" transform="translate(-22.876 -74.332)" fill="#fff"/>
      <path id="Path_9" data-name="Path 9" d="M33.49,97.194c-.033.1-.182.153-.336.109s-.251-.169-.222-.276.182-.156.336-.109S33.519,97.087,33.49,97.194Z" transform="translate(-26.076 -76.4)" fill="#fff"/>
      <path id="Path_10" data-name="Path 10" d="M38.386,97.9c0,.111-.125.2-.285.2s-.289-.085-.291-.2.125-.2.287-.2S38.386,97.787,38.386,97.9Z" transform="translate(-29.944 -77.021)" fill="#fff"/>
      <path id="Path_11" data-name="Path 11" d="M43,97.266c.02.109-.091.222-.249.249s-.3-.038-.32-.147.093-.222.249-.249S42.981,97.157,43,97.266Z" transform="translate(-33.603 -76.565)" fill="#fff"/>
    </g>
    <g id="Layer_1-2" data-name="Layer 1" transform="translate(-0.026)">
      <path id="Path_4-2" data-name="Path 4" d="M12.554,0A12.672,12.672,0,0,0,.138,10.828a12.923,12.923,0,0,0,8.441,14.3c.625.12.858-.28.858-.621,0-.307-.01-1.321-.017-2.4-3.5.779-4.235-1.52-4.235-1.52a3.376,3.376,0,0,0-1.4-1.887c-1.141-.8.085-.783.085-.783A2.652,2.652,0,0,1,5.8,19.241,2.632,2.632,0,0,0,9.46,20.309a2.777,2.777,0,0,1,.8-1.723c-2.784-.322-5.73-1.428-5.73-6.368a5.056,5.056,0,0,1,1.3-3.465,4.743,4.743,0,0,1,.121-3.416S7,4.991,9.406,6.659a11.659,11.659,0,0,1,6.3,0C18.094,5,19.158,5.337,19.158,5.337a4.752,4.752,0,0,1,.123,3.416,5.054,5.054,0,0,1,1.293,3.461c0,4.953-2.94,6.042-5.74,6.362a3.127,3.127,0,0,1,.852,2.387c0,1.725-.012,3.115-.012,3.537,0,.344.225.745.862.619a12.924,12.924,0,0,0,8.422-14.294A12.672,12.672,0,0,0,12.554,0Z" transform="translate(0.026 0)" fill="#fff" fill-rule="evenodd"/>
      <path id="Path_5-2" data-name="Path 5" d="M21.637,85.909a.163.163,0,0,1-.222.042c-.089-.044-.153-.136-.122-.2a.164.164,0,0,1,.222-.042c.087.044.153.136.12.2Z" transform="translate(-16.545 -67.4)" fill="#fff"/>
      <path id="Path_6-2" data-name="Path 6" d="M24.09,88.13c-.064.06-.189.031-.276-.062a.2.2,0,0,1-.038-.278c.067-.06.187-.031.276.062S24.157,88.075,24.09,88.13Z" transform="translate(-18.796 -69.036)" fill="#fff"/>
      <path id="Path_7-2" data-name="Path 7" d="M26.44,91.306c-.082.058-.222,0-.3-.116s-.082-.262,0-.32.222,0,.3.113S26.522,91.249,26.44,91.306Z" transform="translate(-20.65 -71.469)" fill="#fff"/>
      <path id="Path_8-2" data-name="Path 8" d="M29.358,94.693a.251.251,0,0,1-.354-.06c-.118-.109-.151-.262-.076-.342s.222-.06.347.051.151.262.073.342Z" transform="translate(-22.876 -74.332)" fill="#fff"/>
      <path id="Path_9-2" data-name="Path 9" d="M33.49,97.194c-.033.1-.182.153-.336.109s-.251-.169-.222-.276.182-.156.336-.109S33.519,97.087,33.49,97.194Z" transform="translate(-26.076 -76.4)" fill="#fff"/>
      <path id="Path_10-2" data-name="Path 10" d="M38.386,97.9c0,.111-.125.2-.285.2s-.289-.085-.291-.2.125-.2.287-.2S38.386,97.787,38.386,97.9Z" transform="translate(-29.944 -77.021)" fill="#fff"/>
      <path id="Path_11-2" data-name="Path 11" d="M43,97.266c.02.109-.091.222-.249.249s-.3-.038-.32-.147.093-.222.249-.249S42.981,97.157,43,97.266Z" transform="translate(-33.603 -76.565)" fill="#fff"/>
    </g>
  </g>
</svg>
