<svg id="HTML5_logo_and_wordmark" xmlns="http://www.w3.org/2000/svg" width="81.039" height="114.366" viewBox="0 0 81.039 114.366">
  <path id="Path_22" data-name="Path 22" d="M108.4,0h5.138V5.092h4.736V0h5.138V15.411h-5.138V10.274h-4.691v5.137H108.4M130.2,5.137h-4.535V0H139.9V5.137h-4.557V15.411H130.2M142.152,0h5.383l3.306,5.427L154.148,0h5.383V15.411h-5.138V7.772l-3.6,5.539-3.6-5.539v7.638h-5.048M162.078,0h5.138V10.319H174.5v5.092h-12.42" transform="translate(-100.851)" fill="#fff"/>
  <path id="Path_23" data-name="Path 23" d="M81.971,183.339,74.6,100.6h81.039l-7.371,82.695-33.215,9.2" transform="translate(-74.6 -78.131)" fill="#e44d26"/>
  <path id="Path_24" data-name="Path 24" d="M256,209.059V131h33.122L282.8,201.577" transform="translate(-215.476 -101.728)" fill="#f16529"/>
  <path id="Path_25" data-name="Path 25" d="M142,176.3h25.461v10.14H153.123l.938,10.386h13.4v10.118H144.769m.447,5.092H155.4l.715,8.107,11.346,3.037v10.587l-20.816-5.807" transform="translate(-126.944 -136.915)" fill="#ebebeb"/>
  <path id="Path_26" data-name="Path 26" d="M281.217,176.3H255.8v10.14h24.479m-.916,10.386H255.8v10.14h12.507l-1.184,13.177L255.8,223.18v10.542l20.771-5.762" transform="translate(-215.323 -136.915)" fill="#fff"/>
</svg>
