<svg xmlns="http://www.w3.org/2000/svg" width="82.512" height="82.511" viewBox="0 0 82.512 82.511">
  <path id="typescriptlang-icon" d="M0,41.255V82.509H82.512V0H0Zm66.493-3.287a10.276,10.276,0,0,1,5.161,2.973,13.555,13.555,0,0,1,1.978,2.645c.026.1-3.562,2.514-5.737,3.864-.077.052-.393-.287-.748-.812a4.671,4.671,0,0,0-3.877-2.331c-2.5-.17-4.125,1.14-4.1,3.326a3.025,3.025,0,0,0,.353,1.547c.55,1.14,1.573,1.82,4.78,3.21,5.907,2.54,8.434,4.216,10,6.6a11.981,11.981,0,0,1,.957,10.058c-1.31,3.432-4.557,5.763-9.128,6.536a25.315,25.315,0,0,1-6.286-.064,15.164,15.164,0,0,1-8.4-4.374,14.5,14.5,0,0,1-2.148-3.184,6.266,6.266,0,0,1,.761-.485l3.064-1.766,2.372-1.376.5.735a11.069,11.069,0,0,0,3.13,3c2.633,1.388,6.247,1.191,8.028-.406a3.587,3.587,0,0,0,.459-4.57c-.642-.915-1.952-1.689-5.672-3.3-4.257-1.833-6.09-2.973-7.766-4.78a10.887,10.887,0,0,1-2.266-4.125,16.516,16.516,0,0,1-.144-5.265c.877-4.125,3.981-6.981,8.461-7.832a20.925,20.925,0,0,1,6.26.183ZM47.123,41.41l.026,3.378H36.41V75.3h-7.6V44.787H18.075V41.474l.09-3.4c.039-.052,6.575-.077,14.5-.064l14.42.039Z" transform="translate(0 0.002)" fill="#007acc"/>
</svg>
